<svg>
  <defs>
    <g id="menu">
      <path d="M3,6H21V8H3V6M3,11H21V13H3V11M3,16H21V18H3V16Z" />
    </g>
    <g id="arrow-right-bold">
      <path d="M4,10V14H13L9.5,17.5L11.92,19.92L19.84,12L11.92,4.08L9.5,6.5L13,10H4Z" />
    </g>
    <g id="arrow-left-bold">
      <path d="M20,10V14H11L14.5,17.5L12.08,19.92L4.16,12L12.08,4.08L14.5,6.5L11,10H20Z" />
    </g>
    <g id="chevron-double-up">
      <path d="M7.41,18.41L6,17L12,11L18,17L16.59,18.41L12,13.83L7.41,18.41M7.41,12.41L6,11L12,5L18,11L16.59,12.41L12,7.83L7.41,12.41Z" />
    </g>
    <g id="reload">
      <path d="M17.65,6.35C16.2,4.9 14.21,4 12,4A8,8 0 0,0 4,12A8,8 0 0,0 12,20C15.73,20 18.84,17.45 19.73,14H17.65C16.83,16.33 14.61,18 12,18A6,6 0 0,1 6,12A6,6 0 0,1 12,6C13.66,6 15.14,6.69 16.22,7.78L13,11H20V4L17.65,6.35Z" />
    </g>
    <g id="information-outline">
      <path d="M11,9H13V7H11M12,20C7.59,20 4,16.41 4,12C4,7.59 7.59,4 12,4C16.41,4 20,7.59 20,12C20,16.41 16.41,20 12,20M12,2A10,10 0 0,0 2,12A10,10 0 0,0 12,22A10,10 0 0,0 22,12A10,10 0 0,0 12,2M11,17H13V11H11V17Z" />
    </g>


  </defs>
</svg>
